<?xml version="1.0" encoding="utf-8"?><svg version="1.1" id="Layer_1" xmlns="http://www.w3.org/2000/svg" xmlns:xlink="http://www.w3.org/1999/xlink" x="0px" y="0px" width="119.395px" height="122.879px" viewBox="0 0 119.395 122.879" enable-background="new 0 0 119.395 122.879" xml:space="preserve"><g><path d="M113.875,65.43c0.105-1.039,0.18-2.088,0.221-3.154h-5.076c-5.268-2.862-11.303-4.487-17.719-4.487 c-6.441,0-12.5,1.639-17.783,4.524H62.313v9.387c-2.119,2.637-3.887,5.568-5.229,8.725V62.313H26.93 c0.322,8.271,3.116,16.473,8.272,24.637h19.799c-0.373,1.703-0.632,3.449-0.764,5.229H38.855 c4.691,6.16,10.779,12.32,18.228,18.408v-1.1c1.529,3.596,3.608,6.902,6.133,9.811c-1.164,0.066-2.338,0.098-3.519,0.098 c-4.118,0-8.094-0.393-11.997-1.182c-3.832-0.752-7.52-1.896-11.137-3.438c-0.036,0-0.107-0.035-0.143-0.072 c-3.581-1.539-6.983-3.4-10.171-5.514c-3.187-2.113-6.124-4.549-8.81-7.234c-2.722-2.686-5.121-5.623-7.234-8.811 c-2.148-3.186-3.975-6.588-5.515-10.17c-1.576-3.652-2.722-7.412-3.51-11.281C0.394,67.826,0,63.816,0,59.698 c0-4.118,0.394-8.094,1.182-11.997c0.752-3.832,1.898-7.52,3.438-11.137c0-0.036,0.036-0.107,0.072-0.143 c1.54-3.617,3.402-6.983,5.515-10.171c2.113-3.187,4.548-6.124,7.234-8.81c2.686-2.722,5.623-5.121,8.81-7.234 c3.188-2.149,6.59-3.975,10.171-5.515c3.653-1.576,7.413-2.722,11.28-3.51C51.568,0.394,55.58,0,59.698,0 c4.119,0,8.093,0.394,11.998,1.182c3.83,0.752,7.52,1.898,11.137,3.438c0.035,0,0.107,0.036,0.143,0.072 c3.582,1.54,6.984,3.402,10.172,5.515c3.186,2.113,6.123,4.548,8.809,7.234c2.723,2.686,5.121,5.623,7.234,8.81 c2.148,3.188,3.975,6.589,5.514,10.171c1.576,3.652,2.723,7.413,3.51,11.28c0.789,3.868,1.182,7.879,1.182,11.997 c0,3.423-0.271,6.75-0.816,10.017C117.137,68.156,115.563,66.723,113.875,65.43L113.875,65.43z M91.301,67.029 c15.42,0,27.926,12.504,27.926,27.926c0,15.42-12.506,27.924-27.926,27.924s-27.926-12.504-27.926-27.924 C63.375,79.533,75.881,67.029,91.301,67.029L91.301,67.029z M108.146,83.867l-27.932,27.934c3.182,2.098,6.99,3.32,11.086,3.32 c11.135,0,20.166-9.031,20.166-20.166c0-4.096-1.223-7.904-3.32-11.086V83.867L108.146,83.867z M74.455,106.039l27.932-27.932 c-3.18-2.098-6.99-3.32-11.086-3.32c-11.135,0-20.166,9.031-20.166,20.166C71.135,99.049,72.357,102.857,74.455,106.039 L74.455,106.039L74.455,106.039z M52.678,113.701c-8.451-7.09-15.22-14.252-20.233-21.523H15.936 c1.576,2.15,3.331,4.154,5.229,6.053c2.471,2.471,5.121,4.656,8.022,6.59c2.865,1.934,5.98,3.617,9.347,5.049 c0.036,0.037,0.072,0.037,0.107,0.072c3.258,1.361,6.625,2.436,10.134,3.115c1.29,0.25,2.614,0.465,3.939,0.645H52.678 L52.678,113.701z M12.499,86.949h16.616c-4.62-8.092-7.127-16.33-7.413-24.637H5.3c0.144,2.863,0.465,5.621,1.003,8.344 c0.716,3.545,1.755,6.947,3.187,10.242C10.385,83.012,11.388,85.016,12.499,86.949L12.499,86.949z M5.3,57.083h16.509 c0.608-8.165,3.331-16.366,8.165-24.638H12.499c-1.11,1.934-2.113,3.939-3.009,6.052c-0.036,0.036-0.036,0.072-0.071,0.107 c-1.361,3.259-2.436,6.625-3.116,10.135C5.765,51.461,5.407,54.218,5.3,57.083L5.3,57.083z M15.9,27.216h17.44 c4.978-7.162,11.531-14.36,19.696-21.594c-1.468,0.179-2.9,0.394-4.297,0.68c-3.545,0.716-6.948,1.754-10.242,3.187 c-3.331,1.433-6.446,3.116-9.347,5.05c-2.901,1.934-5.551,4.118-8.022,6.589c-1.898,1.898-3.652,3.903-5.229,6.052V27.216 L15.9,27.216z M66.359,5.623c8.199,7.233,14.754,14.432,19.695,21.594h17.441c-1.576-2.148-3.332-4.154-5.229-6.052 c-2.473-2.471-5.121-4.656-8.023-6.589c-2.865-1.934-5.98-3.617-9.346-5.049c-0.037-0.036-0.072-0.036-0.107-0.072 c-3.26-1.361-6.625-2.435-10.135-3.115c-1.434-0.287-2.865-0.502-4.297-0.681V5.623L66.359,5.623z M106.896,32.445H89.422 c4.834,8.272,7.555,16.473,8.164,24.638h16.51c-0.145-2.865-0.467-5.623-1.004-8.344c-0.715-3.545-1.754-6.947-3.186-10.242 C109.01,36.384,108.008,34.379,106.896,32.445L106.896,32.445L106.896,32.445z M62.313,9.025v18.191h17.332 C75.096,21.2,69.33,15.148,62.313,9.025L62.313,9.025z M62.313,32.445v24.638h30.045c-0.68-8.094-3.688-16.294-9.061-24.638H62.313 L62.313,32.445z M57.083,57.083V32.445H36.098c-5.372,8.344-8.379,16.544-9.06,24.638H57.083L57.083,57.083z M57.083,27.216V9.025 C50.064,15.148,44.299,21.2,39.75,27.216H57.083L57.083,27.216z"/></g></svg>